<mxfile host="app.diagrams.net" modified="2024-03-18T18:13:52.934Z" agent="Mozilla/5.0 (Windows NT 10.0; Win64; x64) AppleWebKit/537.36 (KHTML, like Gecko) Chrome/122.0.0.0 Safari/537.36" etag="qNCA8ZMulJN5s4hgaMZ0" version="24.0.7" type="device">
  <diagram id="R2lEEEUBdFMjLlhIrx00" name="Page-1">
    <mxGraphModel dx="1050" dy="522" grid="0" gridSize="10" guides="1" tooltips="1" connect="1" arrows="1" fold="1" page="0" pageScale="1" pageWidth="850" pageHeight="1100" math="0" shadow="0" extFonts="Permanent Marker^https://fonts.googleapis.com/css?family=Permanent+Marker">
      <root>
        <mxCell id="0" />
        <mxCell id="1" parent="0" />
        <mxCell id="Nq8sNpNA33K7av5ri07T-2" value="" style="rounded=0;whiteSpace=wrap;html=1;labelBackgroundColor=none;fillColor=#FAE5C7;strokeColor=#0F8B8D;fontColor=#143642;strokeWidth=2;" vertex="1" parent="1">
          <mxGeometry x="263" y="288" width="291" height="389" as="geometry" />
        </mxCell>
        <mxCell id="Nq8sNpNA33K7av5ri07T-4" value="Patient" style="shape=umlActor;verticalLabelPosition=bottom;verticalAlign=top;html=1;outlineConnect=0;labelBackgroundColor=none;fillColor=#FAE5C7;strokeColor=#0F8B8D;fontColor=#143642;strokeWidth=2;" vertex="1" parent="1">
          <mxGeometry x="188" y="433" width="30" height="60" as="geometry" />
        </mxCell>
        <mxCell id="Nq8sNpNA33K7av5ri07T-6" value="Smart Sleep&lt;br&gt;Hardware" style="ellipse;whiteSpace=wrap;html=1;labelBackgroundColor=none;fillColor=#FAE5C7;strokeColor=#0F8B8D;fontColor=#143642;strokeWidth=2;" vertex="1" parent="1">
          <mxGeometry x="346" y="301" width="120" height="55" as="geometry" />
        </mxCell>
        <mxCell id="Nq8sNpNA33K7av5ri07T-7" value="Sensor Data" style="ellipse;whiteSpace=wrap;html=1;labelBackgroundColor=none;fillColor=#FAE5C7;strokeColor=#0F8B8D;fontColor=#143642;strokeWidth=2;" vertex="1" parent="1">
          <mxGeometry x="346" y="377" width="120" height="55" as="geometry" />
        </mxCell>
        <mxCell id="Nq8sNpNA33K7av5ri07T-8" value="Fetching data to&amp;nbsp;&lt;div&gt;website&lt;/div&gt;" style="ellipse;whiteSpace=wrap;html=1;labelBackgroundColor=none;fillColor=#FAE5C7;strokeColor=#0F8B8D;fontColor=#143642;strokeWidth=2;" vertex="1" parent="1">
          <mxGeometry x="346" y="451" width="120" height="55" as="geometry" />
        </mxCell>
        <mxCell id="Nq8sNpNA33K7av5ri07T-9" value="Machine learning&amp;nbsp;&lt;br&gt;algo applied" style="ellipse;whiteSpace=wrap;html=1;labelBackgroundColor=none;fillColor=#FAE5C7;strokeColor=#0F8B8D;fontColor=#143642;strokeWidth=2;" vertex="1" parent="1">
          <mxGeometry x="346" y="529" width="120" height="55" as="geometry" />
        </mxCell>
        <mxCell id="Nq8sNpNA33K7av5ri07T-10" value="datas insights and analysis&amp;nbsp;" style="ellipse;whiteSpace=wrap;html=1;labelBackgroundColor=none;fillColor=#FAE5C7;strokeColor=#0F8B8D;fontColor=#143642;strokeWidth=2;" vertex="1" parent="1">
          <mxGeometry x="346" y="607" width="120" height="55" as="geometry" />
        </mxCell>
        <mxCell id="Nq8sNpNA33K7av5ri07T-12" value="" style="endArrow=classic;html=1;rounded=0;entryX=0.053;entryY=0.665;entryDx=0;entryDy=0;entryPerimeter=0;labelBackgroundColor=none;strokeColor=#A8201A;fontColor=default;strokeWidth=2;" edge="1" parent="1" target="Nq8sNpNA33K7av5ri07T-6">
          <mxGeometry width="50" height="50" relative="1" as="geometry">
            <mxPoint x="228" y="463" as="sourcePoint" />
            <mxPoint x="278" y="413" as="targetPoint" />
          </mxGeometry>
        </mxCell>
        <mxCell id="Nq8sNpNA33K7av5ri07T-16" value="Patient" style="shape=umlActor;verticalLabelPosition=bottom;verticalAlign=top;html=1;outlineConnect=0;labelBackgroundColor=none;fillColor=#FAE5C7;strokeColor=#0F8B8D;fontColor=#143642;strokeWidth=2;" vertex="1" parent="1">
          <mxGeometry x="598" y="433" width="30" height="60" as="geometry" />
        </mxCell>
        <mxCell id="Nq8sNpNA33K7av5ri07T-19" value="" style="endArrow=classic;html=1;rounded=0;entryX=0.053;entryY=0.665;entryDx=0;entryDy=0;entryPerimeter=0;labelBackgroundColor=none;strokeColor=#A8201A;fontColor=default;strokeWidth=2;" edge="1" parent="1">
          <mxGeometry width="50" height="50" relative="1" as="geometry">
            <mxPoint x="464" y="616" as="sourcePoint" />
            <mxPoint x="588" y="501" as="targetPoint" />
          </mxGeometry>
        </mxCell>
        <mxCell id="Nq8sNpNA33K7av5ri07T-20" value="" style="endArrow=none;html=1;rounded=0;entryX=0;entryY=0.5;entryDx=0;entryDy=0;labelBackgroundColor=none;strokeColor=#A8201A;fontColor=default;strokeWidth=2;" edge="1" parent="1" target="Nq8sNpNA33K7av5ri07T-8">
          <mxGeometry width="50" height="50" relative="1" as="geometry">
            <mxPoint x="230" y="479" as="sourcePoint" />
            <mxPoint x="280" y="429" as="targetPoint" />
          </mxGeometry>
        </mxCell>
        <mxCell id="Nq8sNpNA33K7av5ri07T-21" value="" style="endArrow=none;html=1;rounded=0;entryX=0;entryY=0.5;entryDx=0;entryDy=0;labelBackgroundColor=none;strokeColor=#A8201A;fontColor=default;strokeWidth=2;" edge="1" parent="1">
          <mxGeometry width="50" height="50" relative="1" as="geometry">
            <mxPoint x="466" y="478" as="sourcePoint" />
            <mxPoint x="582" y="478" as="targetPoint" />
          </mxGeometry>
        </mxCell>
        <mxCell id="Nq8sNpNA33K7av5ri07T-22" value="" style="endArrow=classic;html=1;rounded=0;labelBackgroundColor=none;strokeColor=#A8201A;fontColor=default;strokeWidth=2;" edge="1" parent="1">
          <mxGeometry width="50" height="50" relative="1" as="geometry">
            <mxPoint x="405.5" y="506" as="sourcePoint" />
            <mxPoint x="405.5" y="525" as="targetPoint" />
          </mxGeometry>
        </mxCell>
        <mxCell id="Nq8sNpNA33K7av5ri07T-23" value="" style="endArrow=classic;html=1;rounded=0;labelBackgroundColor=none;strokeColor=#A8201A;fontColor=default;strokeWidth=2;" edge="1" parent="1">
          <mxGeometry width="50" height="50" relative="1" as="geometry">
            <mxPoint x="405.5" y="433" as="sourcePoint" />
            <mxPoint x="405.5" y="452" as="targetPoint" />
          </mxGeometry>
        </mxCell>
        <mxCell id="Nq8sNpNA33K7av5ri07T-24" value="" style="endArrow=classic;html=1;rounded=0;labelBackgroundColor=none;strokeColor=#A8201A;fontColor=default;strokeWidth=2;" edge="1" parent="1">
          <mxGeometry width="50" height="50" relative="1" as="geometry">
            <mxPoint x="405.5" y="358" as="sourcePoint" />
            <mxPoint x="405.5" y="377" as="targetPoint" />
          </mxGeometry>
        </mxCell>
        <mxCell id="Nq8sNpNA33K7av5ri07T-25" value="" style="endArrow=classic;html=1;rounded=0;labelBackgroundColor=none;strokeColor=#A8201A;fontColor=default;strokeWidth=2;" edge="1" parent="1">
          <mxGeometry width="50" height="50" relative="1" as="geometry">
            <mxPoint x="405.5" y="584" as="sourcePoint" />
            <mxPoint x="405.5" y="603" as="targetPoint" />
          </mxGeometry>
        </mxCell>
      </root>
    </mxGraphModel>
  </diagram>
</mxfile>
